<?xml version="1.0" encoding="utf-8"?>
<svg version="1.1" id="Layer_1" xmlns="http://www.w3.org/2000/svg" xmlns:xlink="http://www.w3.org/1999/xlink" x="0px" y="0px"
	 viewBox="0 0 251.6 125.6" style="enable-background:new 0 0 251.6 125.6;" xml:space="preserve">
<style type="text/css">
	.tsd-logo{fill:#000000;}
</style>
		<path class="tsd-logo" d="M19.5,26.9h30.6l0,6.2l-30.5,0c0,0-0.2,23.8-0.1,30.9c0.5,18.3,4.7,54.1,34.6,55.4
			c11.7,0.5,53.7,0.2,57.1-0.1c8-0.7,22.4-5.2,22.1-29.3c-0.3-25.6-15-27.5-50.7-37.4c-11.3-3.1-19.5-9.7-19.6-23
			C62.8,11.4,77.8-0.7,110.8,0.1h68.7c0,0,72-0.3,72.1,63.7c0,17.7-8.9,63.1-82.1,61.6l-9-0.1v-5.9c0,0,4.1-0.1,9,0
			c21.6,0.4,59.8-12.3,62.1-55.1c1-18.8-16.4-55.6-52.2-58.5h-56.7c0,0-41.7-3.4-40.2,23.4c0.8,14.5,14.5,19.5,28.3,24.2
			c8.2,2.8,41.3,8,42,36.1c0.5,18.5-11.9,35.8-41.8,35.9c-30.4,0.1-54.1,0.5-61.6,0.2C13.3,124.2,0.2,89.4,0.1,64.1
			c-0.2-39,0-64.1,0-64.1h19.4V26.9z"/>
</svg>
